<?xml version="1.0" encoding="utf-8"?>
<!-- Generator: Adobe Illustrator 22.1.0, SVG Export Plug-In . SVG Version: 6.00 Build 0)  -->
<svg version="1.1" id="Layer_1" xmlns="http://www.w3.org/2000/svg" xmlns:xlink="http://www.w3.org/1999/xlink" x="0px" y="0px"
	 viewBox="0 0 800 600" style="enable-background:new 0 0 800 600;" xml:space="preserve">
<style type="text/css">
	.st0{clip-path:url(#SVGID_2_);fill:#CFE2F3;}
	.st1{clip-path:url(#SVGID_2_);fill:none;stroke:#000000;stroke-linejoin:round;stroke-miterlimit:10;}
	.st2{clip-path:url(#SVGID_2_);}
</style>
<g>
	<defs>
		<rect id="SVGID_1_" width="800" height="600"/>
	</defs>
	<clipPath id="SVGID_2_">
		<use xlink:href="#SVGID_1_"  style="overflow:visible;"/>
	</clipPath>
	<path class="st0" d="M63.5,294L63.5,294c0-150.8,147.1-273,328.6-273l0,0c181.5,0,328.6,122.2,328.6,273l0,0
		c0,150.8-147.1,273-328.6,273l0,0C210.7,567,63.5,444.8,63.5,294z"/>
	<path class="st1" d="M63.5,294L63.5,294c0-150.8,147.1-273,328.6-273l0,0c181.5,0,328.6,122.2,328.6,273l0,0
		c0,150.8-147.1,273-328.6,273l0,0C210.7,567,63.5,444.8,63.5,294z"/>
	<path class="st2" d="M341.3,492.6l3.6-0.3c0.2,1.4,0.6,2.6,1.2,3.5c0.6,0.9,1.6,1.7,2.9,2.3c1.3,0.6,2.8,0.8,4.5,0.8
		c1.4,0,2.7-0.2,3.8-0.6c1.1-0.4,1.9-1,2.5-1.8c0.5-0.8,0.8-1.6,0.8-2.5c0-0.9-0.3-1.7-0.8-2.4c-0.5-0.7-1.4-1.2-2.6-1.7
		c-0.8-0.3-2.5-0.8-5.2-1.4c-2.6-0.6-4.5-1.2-5.5-1.8c-1.4-0.7-2.4-1.6-3.1-2.7c-0.7-1.1-1-2.3-1-3.6c0-1.5,0.4-2.8,1.2-4.1
		c0.8-1.3,2-2.2,3.6-2.9c1.6-0.7,3.4-1,5.3-1c2.1,0,4,0.3,5.7,1c1.6,0.7,2.9,1.7,3.7,3.1c0.9,1.3,1.4,2.8,1.4,4.5l-3.7,0.3
		c-0.2-1.8-0.8-3.2-2-4.1c-1.1-0.9-2.8-1.4-5-1.4c-2.3,0-4,0.4-5.1,1.3c-1,0.8-1.6,1.8-1.6,3c0,1,0.4,1.9,1.1,2.6
		c0.7,0.7,2.7,1.4,5.8,2c3.1,0.7,5.2,1.3,6.4,1.8c1.7,0.8,2.9,1.8,3.7,3c0.8,1.2,1.2,2.5,1.2,4.1c0,1.5-0.4,3-1.3,4.3
		c-0.9,1.4-2.2,2.4-3.8,3.2c-1.6,0.8-3.5,1.1-5.5,1.1c-2.6,0-4.8-0.4-6.5-1.1c-1.8-0.8-3.1-1.9-4.2-3.5
		C341.9,496.2,341.4,494.5,341.3,492.6z M376.8,498.7l0.5,3.1c-1,0.2-1.9,0.3-2.7,0.3c-1.3,0-2.3-0.2-3-0.6c-0.7-0.4-1.2-1-1.5-1.6
		c-0.3-0.7-0.4-2.1-0.4-4.2v-12h-2.6V481h2.6v-5.2l3.5-2.1v7.3h3.6v2.8h-3.6v12.2c0,1,0.1,1.7,0.2,2c0.1,0.3,0.3,0.5,0.6,0.7
		c0.3,0.2,0.7,0.3,1.2,0.3C375.6,498.8,376.1,498.8,376.8,498.7z M393.9,499.3c-1.3,1.1-2.6,1.9-3.8,2.4c-1.2,0.5-2.5,0.7-3.9,0.7
		c-2.3,0-4-0.6-5.3-1.7c-1.2-1.1-1.9-2.6-1.9-4.3c0-1,0.2-2,0.7-2.8c0.5-0.8,1.1-1.5,1.9-2c0.8-0.5,1.6-0.9,2.5-1.2
		c0.7-0.2,1.7-0.3,3.1-0.5c2.9-0.3,5-0.7,6.3-1.2c0-0.5,0-0.8,0-0.9c0-1.4-0.3-2.4-1-3.1c-0.9-0.8-2.2-1.2-4-1.2
		c-1.7,0-2.9,0.3-3.7,0.9c-0.8,0.6-1.4,1.6-1.7,3.1l-3.5-0.5c0.3-1.5,0.8-2.7,1.5-3.6c0.7-0.9,1.8-1.6,3.1-2.1
		c1.4-0.5,2.9-0.8,4.8-0.8c1.8,0,3.2,0.2,4.3,0.6c1.1,0.4,1.9,1,2.5,1.6c0.5,0.6,0.9,1.4,1.1,2.4c0.1,0.6,0.2,1.7,0.2,3.3v4.7
		c0,3.3,0.1,5.4,0.2,6.3c0.1,0.9,0.5,1.7,0.9,2.5h-3.7C394.2,501.1,394,500.3,393.9,499.3z M393.6,491.4c-1.3,0.5-3.2,1-5.8,1.3
		c-1.4,0.2-2.5,0.5-3.1,0.7c-0.6,0.3-1,0.6-1.4,1.1c-0.3,0.5-0.5,1.1-0.5,1.7c0,0.9,0.4,1.7,1.1,2.4c0.7,0.6,1.8,0.9,3.1,0.9
		c1.4,0,2.6-0.3,3.6-0.9c1.1-0.6,1.9-1.4,2.4-2.5c0.4-0.8,0.6-2,0.6-3.6V491.4z M402.6,501.9V481h3.2v3c1.5-2.3,3.7-3.5,6.6-3.5
		c1.3,0,2.4,0.2,3.5,0.7c1.1,0.4,1.9,1,2.4,1.8c0.5,0.7,0.9,1.6,1.1,2.6c0.1,0.7,0.2,1.8,0.2,3.5v12.8h-3.6v-12.7
		c0-1.4-0.1-2.5-0.4-3.2c-0.3-0.7-0.8-1.3-1.5-1.7c-0.7-0.4-1.5-0.6-2.5-0.6c-1.5,0-2.8,0.5-3.9,1.4c-1.1,0.9-1.6,2.7-1.6,5.4v11.4
		H402.6z M438.6,501.9v-2.6c-1.3,2.1-3.3,3.1-5.9,3.1c-1.7,0-3.2-0.5-4.6-1.4c-1.4-0.9-2.5-2.2-3.2-3.8c-0.8-1.6-1.1-3.5-1.1-5.7
		c0-2.1,0.3-4,1-5.7s1.7-3,3.1-3.9c1.4-0.9,3-1.4,4.7-1.4c1.3,0,2.4,0.3,3.4,0.8c1,0.5,1.8,1.2,2.4,2V473h3.5v28.8H438.6z
		 M427.4,491.4c0,2.7,0.6,4.7,1.7,6s2.5,2,4,2c1.6,0,2.9-0.6,3.9-1.9c1.1-1.3,1.6-3.2,1.6-5.8c0-2.9-0.6-5-1.7-6.3
		c-1.1-1.3-2.4-2-4.1-2c-1.6,0-2.9,0.7-4,2C427.9,486.7,427.4,488.7,427.4,491.4z"/>
	<path class="st0" d="M127.5,232.3L127.5,232.3c0-108.2,118.5-195.9,264.6-195.9l0,0c146.1,0,264.6,87.7,264.6,195.9l0,0
		c0,108.2-118.5,195.9-264.6,195.9l0,0C246,428.2,127.5,340.5,127.5,232.3z"/>
	<path class="st1" d="M127.5,232.3L127.5,232.3c0-108.2,118.5-195.9,264.6-195.9l0,0c146.1,0,264.6,87.7,264.6,195.9l0,0
		c0,108.2-118.5,195.9-264.6,195.9l0,0C246,428.2,127.5,340.5,127.5,232.3z"/>
	<path class="st2" d="M358.7,334.9l-7.1-26.9h3.7l4.1,17.7c0.4,1.8,0.8,3.7,1.1,5.5c0.7-2.9,1.1-4.5,1.2-5l5.1-18.2h4.3l3.9,13.6
		c1,3.4,1.7,6.5,2.1,9.5c0.4-1.7,0.8-3.6,1.4-5.8l4.2-17.3h3.6l-7.4,26.9h-3.4l-5.7-20.5c-0.5-1.7-0.8-2.8-0.8-3.1
		c-0.3,1.2-0.5,2.3-0.8,3.1l-5.7,20.5H358.7z M400.4,332.5c-1.2,1-2.4,1.8-3.6,2.2c-1.1,0.4-2.3,0.6-3.6,0.6c-2.1,0-3.8-0.5-4.9-1.6
		c-1.2-1-1.7-2.4-1.7-4c0-1,0.2-1.8,0.7-2.6c0.4-0.8,1-1.4,1.7-1.9c0.7-0.5,1.5-0.8,2.4-1.1c0.6-0.2,1.6-0.3,2.9-0.5
		c2.7-0.3,4.6-0.7,5.9-1.1c0-0.5,0-0.7,0-0.8c0-1.3-0.3-2.3-0.9-2.9c-0.8-0.7-2.1-1.1-3.8-1.1c-1.6,0-2.7,0.3-3.4,0.8
		c-0.7,0.5-1.3,1.5-1.6,2.9l-3.2-0.4c0.3-1.4,0.8-2.5,1.4-3.3c0.7-0.9,1.6-1.5,2.9-2c1.3-0.5,2.7-0.7,4.4-0.7c1.7,0,3,0.2,4.1,0.6
		c1,0.4,1.8,0.9,2.3,1.5c0.5,0.6,0.8,1.3,1,2.2c0.1,0.6,0.2,1.6,0.2,3.1v4.4c0,3.1,0.1,5,0.2,5.8c0.1,0.8,0.4,1.6,0.8,2.3H401
		C400.7,334.2,400.5,333.4,400.4,332.5z M400.1,325.1c-1.2,0.5-3,0.9-5.4,1.3c-1.4,0.2-2.3,0.4-2.9,0.7c-0.6,0.3-1,0.6-1.3,1.1
		c-0.3,0.5-0.4,1-0.4,1.6c0,0.9,0.3,1.6,1,2.2c0.7,0.6,1.6,0.9,2.9,0.9c1.3,0,2.4-0.3,3.4-0.8c1-0.6,1.7-1.3,2.2-2.3
		c0.4-0.8,0.5-1.9,0.5-3.3V325.1z M408.5,334.9V308h3.3v26.9H408.5z M416.9,334.9V308h3.3v15.4l7.8-7.9h4.2l-7.4,7.2l8.2,12.2H429
		l-6.5-10l-2.3,2.3v7.7H416.9z"/>
	<path class="st0" d="M256.4,158.8L256.4,158.8c0-55.5,60.8-100.5,135.7-100.5l0,0c75,0,135.7,45,135.7,100.5l0,0
		c0,55.5-60.8,100.5-135.7,100.5l0,0C317.2,259.4,256.4,214.4,256.4,158.8z"/>
	<path class="st1" d="M256.4,158.8L256.4,158.8c0-55.5,60.8-100.5,135.7-100.5l0,0c75,0,135.7,45,135.7,100.5l0,0
		c0,55.5-60.8,100.5-135.7,100.5l0,0C317.2,259.4,256.4,214.4,256.4,158.8z"/>
	<path class="st2" d="M371.9,164.1l3.3-0.3c0.2,1.3,0.5,2.4,1.1,3.3c0.6,0.9,1.5,1.6,2.7,2.1c1.2,0.5,2.6,0.8,4.2,0.8
		c1.3,0,2.5-0.2,3.6-0.6c1-0.4,1.8-0.9,2.3-1.6c0.5-0.7,0.8-1.5,0.8-2.3s-0.3-1.6-0.8-2.2c-0.5-0.6-1.3-1.2-2.4-1.6
		c-0.7-0.3-2.3-0.7-4.8-1.3c-2.5-0.6-4.2-1.2-5.2-1.7c-1.3-0.7-2.3-1.5-2.9-2.5c-0.6-1-0.9-2.1-0.9-3.4c0-1.3,0.4-2.6,1.2-3.8
		c0.8-1.2,1.9-2.1,3.4-2.7c1.5-0.6,3.1-0.9,4.9-0.9c2,0,3.7,0.3,5.3,1c1.5,0.6,2.7,1.6,3.5,2.8c0.8,1.2,1.3,2.6,1.3,4.2l-3.4,0.3
		c-0.2-1.7-0.8-3-1.9-3.8c-1-0.9-2.6-1.3-4.7-1.3c-2.2,0-3.7,0.4-4.7,1.2c-1,0.8-1.5,1.8-1.5,2.9c0,1,0.4,1.8,1.1,2.4
		c0.7,0.6,2.5,1.3,5.3,2c2.9,0.7,4.9,1.2,5.9,1.7c1.6,0.7,2.7,1.6,3.5,2.7c0.8,1.1,1.1,2.4,1.1,3.8c0,1.4-0.4,2.8-1.2,4.1
		c-0.8,1.3-2,2.2-3.5,3c-1.5,0.7-3.3,1-5.2,1c-2.4,0-4.5-0.4-6.1-1.1c-1.6-0.7-2.9-1.8-3.9-3.2C372.4,167.5,372,165.9,371.9,164.1z
		 M397.8,149.7v-3.8h3.3v3.8H397.8z M397.8,172.8v-19.5h3.3v19.5H397.8z M413.3,169.8l0.5,2.9c-0.9,0.2-1.8,0.3-2.5,0.3
		c-1.2,0-2.1-0.2-2.8-0.6c-0.7-0.4-1.1-0.9-1.4-1.5c-0.3-0.6-0.4-1.9-0.4-3.9v-11.2h-2.4v-2.5h2.4v-4.8l3.3-2v6.8h3.3v2.5H410v11.4
		c0,0.9,0.1,1.5,0.2,1.8c0.1,0.3,0.3,0.5,0.6,0.7c0.3,0.1,0.7,0.2,1.2,0.2C412.2,169.9,412.7,169.9,413.3,169.8z"/>
</g>
</svg>
