<svg xmlns="http://www.w3.org/2000/svg" viewBox="0 0 64 64" width="256px" height="256px"><path fill="#c2cde7" d="M52.59,25a20,20,0,0,0-38.76-9.71A16,16,0,0,0,17,47H52a11,11,0,0,0,.59-22Z"/><path fill="#d6dff2" d="M17.79,11.59a2.51,2.51,0,0,0,3.72-.21,15,15,0,0,1,23,0,2.51,2.51,0,0,0,3.72.21h0a2.52,2.52,0,0,0,.12-3.41,20,20,0,0,0-30.68,0,2.52,2.52,0,0,0,.12,3.41Z"/><path fill="#acb7d0" d="M6 42L61 42 55 47 13 47 6 42z"/><path fill="#8d6c9f" d="M55 43V41a1 1 0 0 0-2 0v2a1 1 0 0 0 2 0zM50 41a1 1 0 0 0-2 0v2a1 1 0 0 0 2 0zM16 41v2a1 1 0 0 0 2 0V41a1 1 0 0 0-2 0zM11 41v2a1 1 0 0 0 2 0V41a1 1 0 0 0-2 0z"/><path fill="#8d6c9f" d="M56.32,24.84a.94.94,0,0,0-.14-.09,11.88,11.88,0,0,0-2.11-.54l-.3-.06a21.39,21.39,0,0,0,0-6,21,21,0,0,0-40.13-5.35l0,0c-.19.44-.33.89-.49,1.34,0,.1-.08.2-.11.3a16.94,16.94,0,0,0,.3,33A8,8,0,1,0,26,54a1,1,0,0,0-2,0,6,6,0,1,1-6-6H48a1,1,0,0,0,0-2H18l-.44,0-.11,0A15.73,15.73,0,0,1,8,42.87V41a1,1,0,0,0-2,0v.07a14.64,14.64,0,0,1-4-9.23A15.1,15.1,0,0,1,12.44,16.72,21.06,21.06,0,0,0,12,21a1,1,0,0,0,2,0,19,19,0,0,1,.78-5.38v0c.14-.46.3-.91.47-1.36,0-.12.08-.23.13-.35a19,19,0,0,1,36.44,4.5A19.37,19.37,0,0,1,51.74,24a12,12,0,0,0-1.83.16,1,1,0,1,0,.35,2A10,10,0,0,1,52.59,26c.27,0,.53,0,.79.08l.32.05A10,10,0,0,1,62,36.38a9.64,9.64,0,0,1-2,5.48V41a1,1,0,0,0-2,0v2a1,1,0,0,0,.26.65A10.5,10.5,0,0,1,51.65,46a1,1,0,0,0,0,2A12.29,12.29,0,0,0,64,36.45,12.06,12.06,0,0,0,56.32,24.84Z"/><path fill="#8d6c9f" d="M41.8 10.11a1 1 0 1 0 1.26-1.55 16 16 0 0 0-2.53-1.68 1 1 0 1 0-.94 1.76A14.08 14.08 0 0 1 41.8 10.11zM25.85 8.81a1 1 0 0 0 .48-.12A14.19 14.19 0 0 1 36 7.31a1 1 0 0 0 .42-2 16.2 16.2 0 0 0-11 1.57 1 1 0 0 0 .48 1.88zM18 35a9 9 0 0 0 9 9H45a1 1 0 0 0 0-2H27a7 7 0 1 1 7-7 1 1 0 0 0 2 0 9 9 0 0 0-18 0zM59 50H55a1 1 0 0 0 0 2h4a1 1 0 0 0 0-2zM51 50H34a5 5 0 1 0 5 5 1 1 0 0 0-2 0 3 3 0 1 1-3-3H51a1 1 0 0 0 0-2z"/></svg>