<svg xmlns="http://www.w3.org/2000/svg" viewBox="0 0 64 64" width="256px" height="256px"><path fill="#f9dd8f" d="M41.46,30a18.76,18.76,0,0,0,3.22-10.28,1,1,0,0,1,1.84-.51q.79,1.28,1.47,2.62a36.53,36.53,0,0,1,3.93,16.53v.54c0,11.34-8.82,21-20.16,21.41A20.92,20.92,0,0,1,10.08,39.41c0-11.11,7.73-13.38,8.33-23.8a1,1,0,0,1,1.34-.87c2.4.93,7.32,3.48,8.11,9"/><path fill="#f6d397" d="M51.26,44.22a20.85,20.85,0,0,1-40.59.11l2.89-1a4,4,0,0,1,4.91,2.13,13.8,13.8,0,0,0,25-.15,4,4,0,0,1,4.88-2.1Z"/><path fill="#f9dd8f" d="M24,25c.93-5.58,1.76-17.06.18-22.76a1,1,0,0,1,1.46-1.14C38.92,8.42,44.39,22.29,40.42,35.22"/><path fill="#ffeb9b" d="M40.12,36.18h0a3.48,3.48,0,0,1-3.35-4.32C39.23,21.4,34.05,10.31,24.55,3.92a17.09,17.09,0,0,0-.37-1.69,1,1,0,0,1,1.46-1.14A29.94,29.94,0,0,1,40.12,36.18Z"/><path fill="#8d6c9f" d="M48.88,21.38c-.46-.92-1-1.82-1.51-2.7a2,2,0,0,0-3.7,1,19.84,19.84,0,0,1-1,5.76C42.16,15.23,36.2,5.78,26.12.21A2,2,0,0,0,23.22,2.5,29.15,29.15,0,0,1,24,15.88a17.39,17.39,0,0,0-3.84-2.08,2,2,0,0,0-2.7,1.75c-.27,4.75-2.08,7.68-4,10.78-2.13,3.45-4.33,7-4.33,13.08A21.92,21.92,0,0,0,31,61.33h.81c11.65-.41,21.12-10.47,21.12-22.41v-.54A37.31,37.31,0,0,0,48.88,21.38Zm2,17.52c0,10.88-8.61,20-19.2,20.41A19.92,19.92,0,0,1,11.08,39.41c0-5.49,2-8.67,4-12,2-3.18,4-6.46,4.28-11.71,2.49,1,6.78,3.31,7.48,8.19a1,1,0,0,0,2-.28,10.86,10.86,0,0,0-3.11-6.17A32.35,32.35,0,0,0,25.16,2c10.79,6,16.54,16.64,15.38,27.69a1,1,0,0,0-.05.51,27.85,27.85,0,0,1-1,4.76,1,1,0,0,0,1.91.59,30,30,0,0,0,1.12-5.26,19.77,19.77,0,0,0,3.18-10.52c.51.83,1,1.69,1.43,2.55a35.32,35.32,0,0,1,3.83,16.08Z"/><path fill="#8d6c9f" d="M33.46 13.43a1 1 0 0 0-.39 1.36 26.94 26.94 0 0 1 3.09 8.9 1 1 0 0 0 1 .84h.16a1 1 0 0 0 .83-1.14 28.92 28.92 0 0 0-3.32-9.56A1 1 0 0 0 33.46 13.43zM30.77 8.19a1 1 0 0 0-1.48 1.34c.51.56 1 1.16 1.47 1.76a1 1 0 0 0 1.58-1.22C31.85 9.42 31.32 8.79 30.77 8.19zM31 51a1 1 0 0 0-1 1v2a1 1 0 0 0 2 0V52A1 1 0 0 0 31 51zM36.8 50.68a1 1 0 1 0-1.85.75l.75 1.85a1 1 0 0 0 .93.63 1 1 0 0 0 .93-1.37zM40.75 47.66A1 1 0 1 0 39.31 49l1.39 1.44a1 1 0 0 0 1.44-1.39zM45.11 44.19l-1.83-.81a1 1 0 1 0-.81 1.83L44.3 46a1 1 0 0 0 .41.09 1 1 0 0 0 .41-1.91zM26.5 50.13a1 1 0 0 0-1.3.55l-.75 1.85a1 1 0 1 0 1.85.75l.75-1.85A1 1 0 0 0 26.5 50.13zM21.25 47.66L19.86 49.1a1 1 0 1 0 1.44 1.39L22.69 49a1 1 0 0 0-1.44-1.39zM20 43.88a1 1 0 0 0-1.32-.51l-1.83.81a1 1 0 0 0 .41 1.91A1 1 0 0 0 17.7 46l1.83-.81A1 1 0 0 0 20 43.88z"/></svg>