<?xml version="1.0" encoding="utf-8"?>
<!-- Generator: Adobe Illustrator 24.2.1, SVG Export Plug-In . SVG Version: 6.00 Build 0)  -->
<svg version="1.1" id="Isolation_Mode" xmlns="http://www.w3.org/2000/svg" xmlns:xlink="http://www.w3.org/1999/xlink" x="0px"
	 y="0px" viewBox="0 0 84.2 99.4" style="enable-background:new 0 0 84.2 99.4;" xml:space="preserve">
<style type="text/css">
	.st0{fill-rule:evenodd;clip-rule:evenodd;fill:#3C3C3C;}
	.st1{fill-rule:evenodd;clip-rule:evenodd;fill:#090909;}
	.st2{fill-rule:evenodd;clip-rule:evenodd;fill:#232323;}
	.st3{fill:none;stroke:#A2A2A2;stroke-width:0.9936;stroke-miterlimit:14.9486;}
	.st4{fill:none;stroke:#000000;stroke-width:1.9873;stroke-miterlimit:14.9486;}
	.st5{fill:none;stroke:#A2A2A2;stroke-width:0.9941;stroke-miterlimit:14.9486;}
	.st6{fill:none;stroke:#000000;stroke-width:1.9882;stroke-miterlimit:14.9486;}
	.st7{fill:#F4B934;}
	.st8{fill:#FFFFFF;}
</style>
<g>
	<g id="_x31_50484a6-f61b-4eb6-b091-c5ab28d2f759_1_" transform="translate(0 0)">
		<g transform="translate(412.599 -86.957)">
			<g>
				<path class="st0" d="M-411.6,138v15.8l27.4,15.8h27.4l27.4-15.8V138l-27.4-15.8h-27.4L-411.6,138z"/>
				<path class="st1" d="M-356.9,169.6l27.4-15.8v15.8l-27.4,15.8V169.6z"/>
				<path class="st2" d="M-384.2,169.6h27.4v15.8h-27.4V169.6z"/>
				<path class="st2" d="M-411.6,153.8v15.8l27.4,15.8v-15.8L-411.6,153.8z"/>
				<path class="st3" d="M-411.6,153.8l27.4,15.8h27.4l27.4-15.8 M-384.2,169.6v15.8 M-356.9,169.6v15.8"/>
				<path class="st4" d="M-411.6,138v31.6l27.4,15.8h27.4l27.4-15.8V138l-27.4-15.8h-27.4L-411.6,138z"/>
			</g>
			<path class="st0" d="M-411.6,120.9v15.8l27.4,15.8h27.4l27.4-15.8v-15.8l-27.4-15.8h-27.4L-411.6,120.9z"/>
			<path class="st1" d="M-356.9,152.5l27.4-15.8v15.8l-27.4,15.8V152.5z"/>
			<path class="st2" d="M-384.2,152.5h27.4v15.8h-27.4V152.5z"/>
			<path class="st2" d="M-411.6,136.7v15.8l27.4,15.8v-15.8L-411.6,136.7z"/>
			<path class="st5" d="M-411.6,136.7l27.4,15.8h27.4l27.4-15.8 M-384.2,152.5v15.8 M-356.9,152.5v15.8"/>
			<path class="st6" d="M-411.6,120.9v31.6l27.4,15.8h27.4l27.4-15.8v-31.6l-27.4-15.8h-27.4L-411.6,120.9z"/>
			<path class="st0" d="M-411.6,103.8v15.8l27.4,15.8h27.4l27.4-15.8v-15.8L-356.8,88h-27.4L-411.6,103.8z"/>
			<path class="st1" d="M-356.9,135.4l27.4-15.8v15.8l-27.4,15.8V135.4z"/>
			<path class="st2" d="M-384.2,135.4h27.4v15.8h-27.4V135.4z"/>
			<path class="st2" d="M-411.6,119.6v15.8l27.4,15.8v-15.8L-411.6,119.6z"/>
			<path class="st5" d="M-411.6,119.6l27.4,15.8h27.4l27.4-15.8 M-384.2,135.4v15.8 M-356.9,135.4v15.8"/>
			<path class="st6" d="M-411.6,103.8v31.6l27.4,15.8h27.4l27.4-15.8v-31.6L-356.8,88h-27.4L-411.6,103.8z"/>
			<ellipse class="st7" cx="-370.6" cy="111.7" rx="23.5" ry="13.6"/>
			<g>
				<path class="st8" d="M-368.4,109l1.6-2c0.5-0.6,0.7-1.1,0.6-1.5s-0.6-0.8-1.5-1.4l-1.7-1l3.5-2l3.1,1.8c1.8,1,2.8,2.1,3,3.1
					s-0.2,2.2-1.4,3.7l-11.4,14.5l-5.4-3.1l5.5-7l-12.3,3l-5.4-3.1L-368.4,109z"/>
			</g>
		</g>
	</g>
</g>
</svg>
