<?xml version="1.0" encoding="utf-8"?>
<!-- Generator: Adobe Illustrator 24.2.1, SVG Export Plug-In . SVG Version: 6.00 Build 0)  -->
<svg version="1.1" id="Layer_1" xmlns="http://www.w3.org/2000/svg" xmlns:xlink="http://www.w3.org/1999/xlink" x="0px" y="0px"
	 viewBox="0 0 224 224" style="enable-background:new 0 0 224 224;" xml:space="preserve">
<style type="text/css">
	.st0{fill:#F283A5;}
	.st1{fill:#8D6C9F;}
	.st2{fill:#DD2C00;}
	.st3{fill:#F9DD8F;}
	.st4{fill:#EFC88E;}
	.st5{fill:#F9E3AE;}
</style>
<g>
	<path class="st0" d="M127.6,144.1c0-0.4-0.1-0.8-0.1-1.2c-0.1-1.1-0.2-2.3-0.4-3.4c-0.1-0.4-0.2-0.8-0.2-1.2
		c-0.2-1.1-0.4-2.1-0.7-3.2c-0.1-0.5-0.3-0.9-0.4-1.3c-0.3-1-0.6-2-1-2.9c-0.2-0.5-0.4-0.9-0.6-1.4c-0.4-0.9-0.8-1.8-1.2-2.7
		c-0.2-0.5-0.5-1-0.8-1.4c-0.4-0.8-0.9-1.7-1.4-2.5c-0.3-0.5-0.6-1-1-1.5c-0.5-0.8-1-1.5-1.5-2.3c-0.3-0.5-0.7-0.9-1.1-1.4
		c-1.5-1.9-3-3.7-4.7-5.4c-16.6,16.6-23.2,43.8,0,70.3l0,0c1.4-1.6,2.7-3.2,3.8-4.8c0.1-0.1,0.1-0.2,0.2-0.3c1.1-1.5,2.1-3,3.1-4.6
		c0.1-0.2,0.2-0.3,0.3-0.5c0.9-1.5,1.7-2.9,2.4-4.4c0.1-0.2,0.2-0.4,0.3-0.6c0.7-1.4,1.3-2.8,1.8-4.2c0.1-0.3,0.2-0.5,0.3-0.8
		c0.5-1.4,0.9-2.7,1.3-4.1c0.1-0.3,0.2-0.6,0.2-0.9c0.3-1.3,0.6-2.6,0.8-3.9c0.1-0.3,0.1-0.7,0.1-1c0.2-1.3,0.3-2.5,0.3-3.8
		c0-0.4,0-0.7,0-1.1C127.7,146.4,127.7,145.2,127.6,144.1z"/>
	<path class="st1" d="M112.7,186.5c-1.2,0-2.2-0.5-3-1.4c-26-29.7-16.1-59.3,0.2-75.7c1.5-1.5,4.2-1.5,5.7,0c1.7,1.7,3.3,3.6,5,5.8
		l0.4,0.5c0.3,0.3,0.5,0.7,0.8,1c0.5,0.6,0.9,1.3,1.3,1.9l0.6,1c0.2,0.4,0.5,0.7,0.7,1.1c0.5,0.8,0.9,1.7,1.4,2.5l0.3,0.7
		c0.2,0.4,0.4,0.8,0.6,1.2c0.4,0.9,0.8,1.9,1.2,2.8l0.3,0.7c0.1,0.3,0.3,0.7,0.4,1c0.4,1.1,0.7,2.1,1,3.2l0.4,1.4
		c0.3,1.1,0.6,2.3,0.8,3.5l0.3,1.3c0.2,1.2,0.3,2.5,0.4,3.7l0.1,1.2v0c0.1,1.3,0.1,2.6,0.1,3.9l0,1.2c-0.1,1.4-0.2,2.7-0.4,4.1
		l-0.1,1.1c-0.2,1.4-0.5,2.8-0.8,4.3l-0.2,0.7c-0.5,1.8-0.9,3.2-1.4,4.7l-0.2,0.5c-0.7,1.8-1.3,3.4-2.1,4.9c0,0-0.2,0.4-0.2,0.4
		c-0.9,1.8-1.7,3.4-2.7,5l-3.7-1.6l3.4,2c-1,1.7-2.1,3.3-3.3,4.9c0,0-0.2,0.3-0.2,0.3c-1.2,1.7-2.6,3.3-4,5
		C115,186,113.9,186.5,112.7,186.5L112.7,186.5z M112.7,118.1c-11.9,14.1-17.2,35.6,0,58c0.2-0.3,0.4-0.6,0.6-0.8
		c1.2-1.7,2.2-3.1,3.1-4.6c0,0,0.2-0.4,0.2-0.4c0.9-1.4,1.6-2.8,2.3-4.1c0,0,0.2-0.3,0.2-0.4c0.7-1.5,1.3-2.8,1.8-4.2l0.3-0.7
		c0.5-1.3,0.8-2.5,1.2-3.8l0.2-0.8c0.3-1.2,0.5-2.4,0.7-3.6l0.1-0.9c0.2-1.2,0.3-2.3,0.3-3.5l0-0.9c0-1.1,0-2.2,0-3.3l-0.1-1.1
		c-0.1-1-0.2-2-0.4-3.1l-0.1-0.7c0,0-0.1-0.4-0.1-0.4c-0.2-1-0.4-1.9-0.6-2.9l-0.4-1.2c-0.3-0.9-0.5-1.8-0.9-2.7l-0.5-1.3
		c-0.4-0.9-0.7-1.7-1.1-2.5c-0.1-0.3-0.3-0.6-0.4-0.9l-0.3-0.5c-0.5-1-0.9-1.7-1.3-2.3l-1.2-1.9c-0.3-0.5-0.7-1.1-1.1-1.6
		c-0.2-0.2-0.4-0.5-0.5-0.7l-0.5-0.6C113.7,119.4,113.2,118.7,112.7,118.1z"/>
	<path class="st2" d="M112.5,112c0,0,0.1,0.1,0.1,0.1C112.6,112.1,112.6,112,112.5,112L112.5,112z"/>
	<path class="st1" d="M112.8,116.1c-0.9,0-1.8-0.3-2.5-0.8l0,0c0,0,0,0,0,0l0,0c0,0,0,0,0,0c0,0,0,0,0,0c0,0,0,0,0,0l0,0
		c0,0,0,0,0,0l0,0c-0.1-0.1-0.2-0.2-0.3-0.3c-0.1-0.1-0.1-0.1-0.2-0.2l0,0c-0.1-0.1-0.1-0.1-0.2-0.2c-1.5-1.6-1.5-4,0.1-5.6
		c1.5-1.5,3.9-1.6,5.5-0.1c0,0,0.1,0.1,0.1,0.1c1.7,1.3,2,3.7,0.7,5.5C115.2,115.6,114,116.1,112.8,116.1z M112.5,112L112.5,112
		L112.5,112z"/>
	<path class="st2" d="M112.6,112.1c0,0,0.1,0.1,0.1,0.1l0,0C112.7,112.2,112.7,112.1,112.6,112.1z"/>
	<path class="st1" d="M112.7,116.2c-1.1,0-2.3-0.5-3.1-1.4l0,0c-1.6-1.5-1.6-3.8-0.1-5.4c1.4-1.6,4-1.7,5.7-0.3
		c0.1,0,0.1,0.1,0.2,0.2l0,0c0,0,0.1,0.1,0.2,0.2c0.1,0.1,0.2,0.2,0.3,0.3l0,0c1.4,1.7,1.2,4.2-0.5,5.6
		C114.5,115.9,113.6,116.2,112.7,116.2z"/>
	<path class="st0" d="M105.7,106.2c-0.7-0.5-1.5-1-2.3-1.5c-0.5-0.3-1-0.6-1.5-1c-0.8-0.5-1.7-0.9-2.5-1.4c-0.5-0.3-1-0.5-1.4-0.8
		c-0.9-0.4-1.8-0.8-2.7-1.2c-0.5-0.2-0.9-0.4-1.4-0.6c-1-0.4-1.9-0.7-2.9-1c-0.5-0.1-0.9-0.3-1.4-0.4c-1-0.3-2.1-0.5-3.2-0.7
		c-0.4-0.1-0.8-0.2-1.3-0.2c-1.1-0.2-2.2-0.3-3.4-0.4c-0.4,0-0.8-0.1-1.2-0.1C79.5,97,78.3,97,77.1,97c-0.4,0-0.7,0-1.1,0
		c-1.2,0.1-2.5,0.2-3.8,0.3c-0.3,0-0.7,0.1-1,0.1c-1.3,0.2-2.6,0.5-3.9,0.8c-0.3,0.1-0.6,0.1-0.9,0.2c-1.4,0.4-2.7,0.8-4.1,1.3
		c-0.3,0.1-0.5,0.2-0.8,0.3c-1.4,0.5-2.8,1.1-4.2,1.8c-0.2,0.1-0.4,0.2-0.6,0.3c-1.5,0.7-2.9,1.5-4.4,2.4c-0.2,0.1-0.3,0.2-0.5,0.3
		c-1.5,0.9-3,1.9-4.6,3.1c-0.1,0.1-0.2,0.1-0.3,0.2c-1.6,1.2-3.2,2.4-4.8,3.8l0,0c26.5,23.2,53.6,16.6,70.3,0
		c-1.7-1.7-3.5-3.2-5.4-4.7C106.6,107,106.2,106.6,105.7,106.2z"/>
	<path class="st1" d="M77.9,131c-12,0-25.1-4.5-38.3-16c-0.9-0.8-1.4-1.9-1.4-3c0-1.2,0.5-2.2,1.4-3c1.7-1.5,3.3-2.8,5-4
		c0,0,0.3-0.3,0.4-0.3c1.5-1.1,3.1-2.2,4.8-3.2l0.5-0.3c1.6-0.9,3.1-1.8,4.7-2.5l0.6-0.3c1.6-0.8,3.1-1.4,4.6-2l0.8-0.3
		c1.5-0.5,3-1,4.5-1.4l1-0.2c1.4-0.3,2.8-0.6,4.2-0.8l1.1-0.2c1.3-0.2,2.7-0.3,4.1-0.4l1.2,0c1.3,0,2.6,0,3.8,0.1
		c0.3,0,0.7,0.1,1.1,0.1c1.4,0.1,2.7,0.3,3.9,0.5l1,0.2c0,0,0.4,0.1,0.4,0.1c1.2,0.2,2.3,0.5,3.4,0.8c0.4,0.1,0.7,0.2,1.1,0.3
		c1.4,0.4,2.5,0.8,3.6,1.2c0.4,0.1,0.8,0.3,1.1,0.5l0.4,0.2c1,0.4,2,0.8,2.9,1.3c0.4,0.2,0.7,0.4,1.1,0.6l1,0.5
		c0.7,0.4,1.5,0.8,2.2,1.2c0.4,0.2,0.7,0.4,1,0.7l0.9,0.6c0.7,0.5,1.4,0.9,2.1,1.4c0.5,0.4,1,0.8,1.5,1.2c2.2,1.7,4.1,3.4,5.8,5
		c0.8,0.8,1.2,1.8,1.2,2.8c0,1.1-0.4,2.1-1.2,2.8C106.2,123.9,93,131,77.9,131z M48.6,112c22.4,17.2,43.9,11.9,58,0
		c-0.6-0.5-1.2-1-1.9-1.5c-0.6-0.5-0.9-0.7-1.2-1l0,0c-0.6-0.4-1.1-0.8-1.7-1.1l-1.8-1.2c-0.6-0.3-1.2-0.7-1.8-1l-1.8-1
		c-0.8-0.4-1.6-0.7-2.5-1.1l-0.5-0.2c-0.3-0.1-0.5-0.2-0.8-0.3c-0.9-0.3-1.8-0.6-2.7-0.9l-1.2-0.4c-1-0.3-1.9-0.5-2.9-0.6l-1.2-0.2
		c-1-0.2-2-0.3-3-0.4l-1.1-0.1c-1.1-0.1-2.2-0.1-3.3-0.1l-1,0c-1.1,0-2.3,0.2-3.4,0.3l-0.9,0.1c-1.2,0.2-2.4,0.4-3.6,0.7l-0.6,0.2
		c-1.4,0.4-2.7,0.8-3.9,1.2l-0.7,0.3c-1.3,0.5-2.6,1-3.9,1.7l-0.4,0.2c-1.6,0.8-2.9,1.5-4.3,2.3c0,0-0.4,0.3-0.4,0.3
		c-1.4,0.9-2.9,1.8-4.3,2.9c0,0-0.3,0.2-0.3,0.2C49.1,111.6,48.8,111.8,48.6,112z"/>
	<path class="st0" d="M97.8,79.9c0,0.4,0.1,0.8,0.1,1.2c0.1,1.1,0.2,2.3,0.4,3.4c0.1,0.4,0.2,0.8,0.2,1.2c0.2,1.1,0.4,2.1,0.7,3.2
		c0.1,0.5,0.3,0.9,0.4,1.3c0.3,1,0.6,2,1,2.9c0.2,0.5,0.4,0.9,0.6,1.4c0.4,0.9,0.8,1.8,1.2,2.7c0.2,0.5,0.5,1,0.8,1.4
		c0.4,0.8,0.9,1.7,1.4,2.5c0.3,0.5,0.6,1,1,1.5c0.5,0.8,1,1.5,1.5,2.3c0.3,0.5,0.7,0.9,1.1,1.4c1.5,1.9,3,3.7,4.7,5.4
		c16.6-16.6,23.2-43.8,0-70.3l0,0c-1.4,1.6-2.7,3.2-3.8,4.8c-0.1,0.1-0.1,0.2-0.2,0.3c-1.1,1.5-2.1,3-3.1,4.6
		c-0.1,0.2-0.2,0.3-0.3,0.5c-0.9,1.5-1.7,2.9-2.4,4.4c-0.1,0.2-0.2,0.4-0.3,0.6c-0.7,1.4-1.3,2.8-1.8,4.2c-0.1,0.3-0.2,0.5-0.3,0.8
		c-0.5,1.4-0.9,2.7-1.3,4.1c-0.1,0.3-0.2,0.6-0.2,0.9c-0.3,1.3-0.6,2.6-0.8,3.9c-0.1,0.3-0.1,0.7-0.1,1c-0.2,1.3-0.3,2.5-0.3,3.8
		c0,0.4,0,0.7,0,1.1C97.7,77.6,97.7,78.8,97.8,79.9z"/>
	<path class="st1" d="M112.7,115.8L112.7,115.8c-1.1,0-2.1-0.4-2.8-1.2c-1.7-1.7-3.3-3.6-5-5.8l-0.4-0.4c-0.3-0.3-0.5-0.7-0.8-1
		c-0.5-0.6-0.9-1.3-1.3-2l-0.6-0.9c-0.2-0.4-0.5-0.7-0.7-1.1c-0.5-0.8-0.9-1.7-1.4-2.5l-0.3-0.6c-0.2-0.4-0.4-0.8-0.6-1.2
		c-0.4-0.9-0.8-1.9-1.2-2.8l-0.3-0.7c-0.1-0.3-0.3-0.7-0.4-1c-0.4-1.1-0.7-2.1-1-3.2l-0.1-0.4c-0.1-0.3-0.2-0.7-0.3-1
		c-0.3-1.1-0.6-2.3-0.8-3.5l-0.3-1.4c-0.2-1.2-0.3-2.5-0.4-3.7l-0.1-1.3c0,0,0,0,0,0c-0.1-1.3-0.1-2.6-0.1-3.9l0-1.2
		c0.1-1.4,0.2-2.7,0.4-4.1l0.2-1.1c0.2-1.4,0.5-2.8,0.8-4.2l0.2-0.9c0.4-1.6,0.9-3,1.4-4.5l0.3-0.8c0.6-1.5,1.2-3,1.9-4.5
		c0,0,0.2-0.4,0.2-0.4c0.9-1.8,1.7-3.4,2.7-4.9c0,0,0.3-0.5,0.3-0.5c1-1.6,2.1-3.2,3.2-4.8c1.5-2,2.8-3.6,4.3-5.3
		c0.8-0.9,1.9-1.4,3-1.4l0,0c1.2,0,2.2,0.5,3,1.4c26,29.7,16.1,59.3-0.2,75.7C114.8,115.4,113.8,115.8,112.7,115.8z M101.8,79.7
		l0.1,1.1c0.1,1,0.2,2,0.4,3.1l0.2,1.1c0.2,1,0.4,1.9,0.6,2.9l0.4,1.2c0.3,0.9,0.5,1.8,0.9,2.7l0.5,1.3c0.4,0.9,0.7,1.7,1.1,2.5
		c0.1,0.3,0.3,0.6,0.5,0.9l0.2,0.4c0.5,1,0.9,1.7,1.3,2.3l1.2,1.9c0.3,0.5,0.7,1.1,1.1,1.6c0.2,0.2,0.4,0.5,0.5,0.7l0.5,0.6
		c0.5,0.7,1,1.3,1.5,1.9c11.9-14.1,17.2-35.6,0-58c-0.2,0.3-0.4,0.6-0.6,0.8c-1.3,1.7-2.2,3.1-3.1,4.6c0,0-0.2,0.3-0.2,0.3
		c-0.9,1.5-1.6,2.8-2.3,4.2c0,0-0.2,0.4-0.2,0.4c-0.7,1.5-1.3,2.8-1.8,4.1l-0.3,0.7c-0.5,1.3-0.8,2.5-1.2,3.8l-0.2,0.8
		c-0.3,1.2-0.5,2.4-0.7,3.6l-0.1,0.9c-0.2,1.2-0.3,2.3-0.3,3.4l0,0.9C101.7,77.5,101.7,78.6,101.8,79.7z"/>
	<path class="st2" d="M112.8,111.9c0,0-0.1-0.1-0.1-0.1l0,0C112.7,111.8,112.8,111.9,112.8,111.9z"/>
	<path class="st1" d="M112.7,115.9c-1,0-2-0.4-2.8-1.1c-0.1,0-0.1-0.1-0.2-0.2l0,0c0,0,0,0,0,0c-0.1-0.1-0.2-0.2-0.3-0.3
		c-1.3-1.7-1-4.1,0.7-5.4c1.6-1.4,4-1.2,5.5,0.3c1.5,1.6,1.5,4.1-0.1,5.7C114.8,115.5,113.7,115.9,112.7,115.9z"/>
	<path class="st0" d="M119.7,117.7c0.7,0.5,1.5,1,2.3,1.5c0.5,0.3,1,0.7,1.5,1c0.8,0.5,1.7,0.9,2.5,1.4c0.5,0.3,1,0.5,1.4,0.8
		c0.9,0.4,1.8,0.8,2.7,1.2c0.5,0.2,0.9,0.4,1.4,0.6c1,0.4,2,0.7,2.9,1c0.4,0.1,0.9,0.3,1.3,0.4c1,0.3,2.1,0.5,3.2,0.7
		c0.4,0.1,0.8,0.2,1.2,0.2c1.1,0.2,2.2,0.3,3.4,0.4c0.4,0,0.8,0.1,1.2,0.1c1.2,0.1,2.4,0.1,3.6,0.1c0.4,0,0.7,0,1.1,0
		c1.2-0.1,2.5-0.2,3.8-0.3c0.3,0,0.6-0.1,1-0.1c1.3-0.2,2.6-0.5,3.9-0.8c0.3-0.1,0.6-0.1,0.9-0.2c1.4-0.4,2.7-0.8,4.1-1.3
		c0.2-0.1,0.5-0.2,0.7-0.3c1.4-0.5,2.8-1.1,4.3-1.8c0.2-0.1,0.4-0.2,0.6-0.3c1.5-0.7,2.9-1.5,4.4-2.4c0.2-0.1,0.3-0.2,0.5-0.3
		c1.5-0.9,3-1.9,4.6-3.1c0.1-0.1,0.2-0.1,0.3-0.2c1.6-1.2,3.2-2.4,4.8-3.8l0,0c-26.5-23.2-53.6-16.5-70.3,0c1.7,1.7,3.5,3.2,5.4,4.7
		C118.8,117,119.2,117.4,119.7,117.7z"/>
	<path class="st1" d="M147.2,131c-0.9,0-1.8,0-2.7-0.1c-0.3,0-0.7-0.1-1.1-0.1c-1.4-0.1-2.6-0.3-3.9-0.5l-1.3-0.3
		c-1.2-0.2-2.3-0.5-3.5-0.8c-0.4-0.1-0.7-0.2-1.1-0.3l-0.4-0.1c-1.1-0.3-2.1-0.7-3.2-1.1c-0.3-0.1-0.7-0.3-1.1-0.4l-0.4-0.2
		c-1-0.4-2-0.8-2.9-1.3c-0.4-0.2-0.7-0.4-1.1-0.6l-0.9-0.5c-0.8-0.4-1.5-0.8-2.3-1.3c-0.4-0.2-0.8-0.5-1.1-0.7l-1-0.7
		c-0.6-0.4-1.3-0.8-1.9-1.3c-0.3-0.2-0.6-0.5-0.9-0.7l-0.5-0.4c-2.3-1.8-4.2-3.4-5.8-5.1c-0.8-0.8-1.2-1.8-1.2-2.8
		c0-1.1,0.4-2.1,1.2-2.8c16.4-16.3,46.1-26.1,75.7-0.2c0.9,0.8,1.4,1.9,1.4,3c0,1.2-0.5,2.2-1.4,3c-1.7,1.5-3.3,2.8-5,4
		c-1.9,1.4-3.5,2.5-5.1,3.5l-0.6,0.4c-1.5,0.9-3.1,1.8-4.7,2.5l-0.7,0.3c-1.5,0.7-3.1,1.4-4.6,1.9l-0.8,0.3c-1.5,0.5-3,1-4.4,1.4
		c-0.3,0.1-0.7,0.2-1,0.3c-1.4,0.3-2.8,0.6-4.2,0.8c-0.4,0.1-0.7,0.1-1.1,0.1c-1.4,0.2-2.7,0.3-4.1,0.4l-1.2,0
		C148,131,147.6,131,147.2,131z M118.8,112c0.6,0.5,1.2,1,1.9,1.5l1.3,1c0,0,0,0,0,0c0.5,0.4,1,0.7,1.5,1l1.1,0.7
		c0.3,0.2,0.5,0.4,0.8,0.5c0.6,0.4,1.3,0.7,1.9,1l1.7,0.9c0.8,0.4,1.6,0.7,2.5,1.1l0.5,0.2c0.2,0.1,0.5,0.2,0.8,0.3
		c0.9,0.3,1.8,0.6,2.7,0.9l1.2,0.4c1,0.2,1.9,0.5,2.9,0.6l1.1,0.2c1,0.2,2.1,0.3,3.1,0.4l1,0.1c1.1,0.1,2.2,0.1,3.3,0.1l1,0
		c1.1-0.1,2.3-0.2,3.4-0.3l0.9-0.1c1.2-0.2,2.4-0.4,3.6-0.7l0.7-0.2c1.3-0.3,2.5-0.7,3.8-1.2c0,0,0.7-0.3,0.7-0.3
		c1.3-0.5,2.6-1,3.9-1.7l0.6-0.3c1.3-0.7,2.7-1.4,4.1-2.2l2.5,3.1l-2.1-3.4c1.4-0.9,2.9-1.8,4.3-2.9c0.4-0.3,0.7-0.6,1.1-0.8
		C154.4,94.8,132.9,100,118.8,112z"/>
	<path class="st2" d="M112.9,112c0,0-0.1-0.1-0.1-0.1C112.8,111.9,112.9,112,112.9,112L112.9,112z"/>
	<path class="st1" d="M112.9,116c-1,0-1.9-0.4-2.7-1.1c-1.6-1.4-1.9-3.8-0.6-5.5c1.4-1.7,3.9-2.1,5.6-0.7c0.1,0.1,0.2,0.1,0.3,0.2
		c0.1,0.1,0.2,0.1,0.2,0.2l0,0c0.1,0.1,0.2,0.2,0.2,0.2c1.4,1.6,1.2,4.1-0.4,5.5C114.8,115.6,113.9,116,112.9,116z"/>
	<g>
		<path class="st3" d="M111.8,112c0,0,0.1-0.1,0.1-0.1c0,0,0.1-0.1,0.1-0.1C95.4,95.2,88.8,68,112,41.5c-1.2-1.4-2.4-2.8-3.8-4.1
			C80.4,9.6,28.8-6.2,11.3,11.3s-1.7,69.1,26.1,96.8c1.4,1.4,2.8,2.6,4.1,3.8C68,88.8,95.2,95.4,111.8,112z"/>
		<path class="st3" d="M182.4,112c-26.5,23.2-53.6,16.6-70.3,0c0,0-0.1,0.1-0.1,0.1c0,0-0.1,0.1-0.1,0.1c16.6,16.6,23.2,43.8,0,70.3
			c1.2,1.4,2.4,2.8,3.8,4.1c27.8,27.8,79.4,43.6,96.8,26.1s1.7-69.1-26.1-96.8C185.2,114.4,183.8,113.2,182.4,112z"/>
		<path class="st3" d="M112,112.2c0,0-0.1-0.1-0.1-0.1s-0.1-0.1-0.1-0.1c-16.6,16.6-43.8,23.2-70.3,0c-1.4,1.2-2.8,2.4-4.1,3.8
			c-27.8,27.8-43.6,79.4-26.1,96.8s69.1,1.7,96.8-26.1c1.4-1.4,2.6-2.8,3.8-4.1C88.8,156,95.5,128.8,112,112.2z"/>
		<path class="st1" d="M33.8,224c-10.9,0-19.7-2.9-25.3-8.5c-9.2-9.2-11-26.9-5-48.5c5.7-20.1,17.3-40.2,31-54
			c1.4-1.4,2.9-2.7,4.3-4c1.5-1.3,3.8-1.3,5.3,0c25.5,22.3,50.2,14.7,64.8,0.2c1.5-1.5,3.9-1.6,5.5-0.2c0.1,0.1,0.3,0.2,0.4,0.4l0,0
			c1.6,1.6,1.6,4.1,0,5.6c-14.5,14.6-22.1,39.3,0.2,64.8c1.3,1.5,1.3,3.8,0,5.3c-1.3,1.4-2.6,2.9-4,4.3c-13.8,13.8-34,25.4-54,31
			C48.6,222.8,40.7,224,33.8,224z M41.6,117.3c-0.5,0.4-0.9,0.9-1.4,1.4c-12.8,12.8-23.7,31.7-29,50.5c-5.2,18.4-4.1,33.6,2.9,40.7
			c7,7,22.2,8.1,40.7,2.9c18.8-5.3,37.7-16.1,50.5-29c0.5-0.5,0.9-0.9,1.4-1.4c-16.2-20.1-16.2-40.1-9.4-55.7
			C81.7,133.5,61.8,133.4,41.6,117.3z"/>
		<g>
			<path class="st3" d="M112,111.8c0,0,0.1,0.1,0.1,0.1c0,0,0.1,0.1,0.1,0.1c16.6-16.5,43.8-23.2,70.3,0c1.4-1.2,2.8-2.4,4.1-3.8
				c27.8-27.8,43.6-79.4,26.1-96.8s-69.1-1.7-96.8,26.1c-1.4,1.4-2.6,2.8-3.8,4.1C135.2,68,128.5,95.2,112,111.8z"/>
			<path class="st1" d="M112.2,116c-0.9,0-1.8-0.3-2.6-0.9c-0.2-0.2-0.5-0.5-0.7-0.7c-1.2-1.6-1.2-4,0.2-5.4
				c14.5-14.6,22.1-39.3-0.2-64.8c-1.3-1.5-1.3-3.8,0-5.3c1.3-1.4,2.6-2.9,4-4.3c34-34,85.7-42.9,102.5-26.1
				c16.8,16.8,7.9,68.5-26.1,102.5c-1.4,1.4-2.9,2.7-4.3,4c-1.5,1.3-3.8,1.3-5.3,0c-25.5-22.3-50.2-14.7-64.8-0.2
				C114.2,115.6,113.2,116,112.2,116z M146.8,93c11.2,0,23.3,3.9,35.5,13.7c0.5-0.4,0.9-0.9,1.4-1.4c27.4-27.4,41.3-76,26.1-91.2
				c-7-7-22.2-8.1-40.7-2.9c-18.8,5.3-37.7,16.1-50.5,29c-0.5,0.5-0.9,0.9-1.4,1.4c16.2,20.1,16.2,40.1,9.4,55.7
				C132.8,94.6,139.6,93,146.8,93z"/>
		</g>
	</g>
	<g>
		<path class="st4" d="M212.7,212.7c-5.9-8.6-15.9-13.5-26.3-13c-0.7,0-1.3,0-1.6,0c-10.1-1.2-25.3-6.4-38.5-14.2
			c-9-5.3-19.8-6.7-29.8-3.8l-4.9,1.4c19.7,19.7,55.7,37,78.7,37C199.7,220,207.6,217.7,212.7,212.7L212.7,212.7z"/>
	</g>
	<g>
		<path class="st1" d="M183.8,207.5c-0.2,0-0.3,0-0.5,0c-2.2-0.3-3.7-2.3-3.5-4.5l1-7.9c0.3-2.2,2.3-3.7,4.5-3.5
			c2.2,0.3,3.7,2.3,3.5,4.5l-1,7.9C187.5,206.1,185.8,207.5,183.8,207.5z"/>
		<path class="st1" d="M165.4,202.9c-0.4,0-0.9-0.1-1.4-0.2c-2.1-0.8-3.2-3-2.4-5.1l2.7-7.5c0.7-2.1,3-3.2,5.1-2.4
			c2.1,0.8,3.2,3,2.4,5.1l-2.7,7.5C168.6,201.9,167.1,202.9,165.4,202.9z"/>
		<path class="st1" d="M148.4,195.1c-0.7,0-1.3-0.2-2-0.5c-1.9-1.1-2.6-3.5-1.5-5.4l3.9-7c1.1-1.9,3.5-2.6,5.4-1.5
			c1.9,1.1,2.6,3.5,1.5,5.4l-3.9,7C151.2,194.4,149.8,195.1,148.4,195.1z"/>
	</g>
	<g>
		<path class="st1" d="M189.5,223.8c-22.9,0-53.7-11.5-76.5-34.4c-1.4-1.4-2.7-2.9-4-4.3c-1.3-1.5-1.3-3.8,0-5.3
			c22.3-25.5,14.7-50.2,0.2-64.8c-1.5-1.5-1.6-3.9-0.2-5.5c0.1-0.1,0.3-0.4,0.5-0.5c1.6-1.4,4.1-1.4,5.6,0.1
			c14.6,14.5,39.3,22.1,64.8-0.2c1.5-1.3,3.8-1.3,5.3,0c1.4,1.3,2.9,2.6,4.3,4c13.8,13.8,25.4,34,31,54c6.1,21.6,4.3,39.2-5,48.5
			C210,221,200.7,223.8,189.5,223.8z M117.3,182.3c0.4,0.5,0.9,0.9,1.4,1.4c27.4,27.4,76,41.3,91.2,26.1c7-7,8.1-22.2,2.9-40.7
			c-5.3-18.8-16.1-37.7-29-50.5c-0.5-0.5-0.9-0.9-1.4-1.4c-20.1,16.2-40.1,16.2-55.7,9.4C133.5,142.3,133.5,162.2,117.3,182.3z"/>
	</g>
	<g>
		<path class="st5" d="M33.7,20c14.5,0,37.7,9.3,54.5,20.3c6.4,4.2,14.8,4.8,21.3,0.7c1-0.6,1.5-1.1,1.2-1.4C91,19.9,56.7,4,33.7,4
			l0,0c-9.4,0-17.3,2.3-22.4,7.3l1.1,1.1c5,5,11.9,8,19,7.6C32.2,20,32.9,20,33.7,20L33.7,20"/>
	</g>
	<g>
		<path class="st1" d="M111.7,116.1c-1.1,0-2-0.5-2.7-1.3c-14.6-14.5-39.3-22.1-64.8,0.2c-1.5,1.3-3.8,1.3-5.3,0
			c-1.4-1.3-2.9-2.6-4.3-4C0.6,77-8.3,25.4,8.5,8.5c9.2-9.2,26.9-11,48.5-5c20.1,5.7,40.2,17.2,54,31c1.4,1.4,2.7,2.9,4,4.3
			c1.3,1.5,1.3,3.8,0,5.3c-22.3,25.5-14.7,50.2-0.2,64.8c1.4,1.4,1.6,3.6,0.4,5.2c-0.2,0.3-0.5,0.6-0.8,0.8
			C113.7,115.8,112.8,116.1,111.7,116.1C111.7,116.1,111.7,116.1,111.7,116.1z M33.7,8c-8.6,0-15.5,2.1-19.6,6.2
			C-1,29.4,12.8,78,40.2,105.4c0.5,0.5,0.9,0.9,1.4,1.4c20.1-16.2,40.1-16.2,55.7-9.4c-6.8-15.6-6.8-35.5,9.4-55.7
			c-0.4-0.5-0.9-0.9-1.4-1.4c-12.9-12.8-31.7-23.7-50.5-29C47.1,9.1,40,8,33.7,8z"/>
	</g>
	<g>
		<path class="st1" d="M86.6,44c-0.8,0-1.6-0.2-2.4-0.8c-6.5-4.8-14.1-9-21.8-12.3c-2-0.9-3-3.2-2.1-5.2c0.9-2,3.2-3,5.2-2.1
			c8.3,3.5,16.4,8.1,23.4,13.2c1.8,1.3,2.2,3.8,0.9,5.6C89,43.4,87.8,44,86.6,44z M48.2,25.9c-0.3,0-0.6,0-0.9-0.1
			c-4.9-1.2-9.5-1.8-13.5-1.8c-2.2,0-4-1.8-4-4s1.8-4,4-4c4.7,0,9.9,0.7,15.4,2c2.1,0.5,3.5,2.7,3,4.8C51.6,24.7,50,25.9,48.2,25.9z
			"/>
	</g>
</g>
</svg>
