<?xml version="1.0" encoding="utf-8"?>
<!-- Generator: Adobe Illustrator 24.2.1, SVG Export Plug-In . SVG Version: 6.00 Build 0)  -->
<svg version="1.1" id="Layer_1" xmlns="http://www.w3.org/2000/svg" xmlns:xlink="http://www.w3.org/1999/xlink" x="0px" y="0px"
	 viewBox="0 0 71.1 81.8" style="enable-background:new 0 0 71.1 81.8;" xml:space="preserve">
<style type="text/css">
	.st0{fill-rule:evenodd;clip-rule:evenodd;fill:#EBEBEC;}
	.st1{fill-rule:evenodd;clip-rule:evenodd;fill:#D2D1D3;}
	.st2{fill-rule:evenodd;clip-rule:evenodd;fill:#B7B8BA;}
	.st3{fill:none;stroke:#828289;stroke-width:0.9904;stroke-miterlimit:14.9488;}
	.st4{fill:none;stroke:#000000;stroke-width:1.977;stroke-miterlimit:14.9488;}
	.st5{fill:none;}
	.st6{fill-rule:evenodd;clip-rule:evenodd;fill:#4185C4;}
	.st7{fill:#FFFFFF;}
</style>
<g>
	<g id="_x38_38204c5-d96c-4a38-92e6-e62dc98bb882_1_" transform="translate(0 0)">
		<path class="st0" d="M1,17l41.4,23.9l17.3-2L70.1,9L56.3,1L4.5,7L1,17z"/>
		<path class="st1" d="M1,17v39.9l41.4,23.9V40.9L1,17z"/>
		<path class="st1" d="M42.4,40.9l17.3-2v39.9l-17.3,2V40.9z"/>
		<path class="st2" d="M59.7,38.9L70.1,9v39.9L59.7,78.8V38.9z"/>
		<path class="st3" d="M1,17l41.4,23.9l17.3-2L70.1,9 M59.7,38.9v39.9 M42.4,40.9v39.9"/>
		<path class="st4" d="M1,56.9l41.4,23.9l17.3-2l10.4-29.9V9L56.3,1L4.5,7L1,17L1,56.9L1,56.9z"/>
		<path class="st5" d="M55.8,11.1c-2.1,0-4.2-0.5-5.8-1.4s-2.4-2.1-2.5-3.3L35.9,6.5c0.4,1.4-0.4,2.9-2.3,4
			c-1.2,0.7-2.7,1.1-4.2,1.3c-2.1,0.2-4,0.8-5.6,1.7c-4.2,2.4-4.2,6.4,0,8.8c2.4,1.4,3.8,3.2,4.1,5c3.2,0.2,6.2,1,8.6,2.4
			c4.2,2.4,11,2.4,15.2,0c1.6-0.9,2.6-2.1,3-3.3c0.3-0.9,1-1.8,2.2-2.4c1.9-1.1,4.5-1.5,7-1.3l0.2-6.7c-2.1,0-4.2-0.5-5.8-1.4
			C56.7,13.5,55.8,12.3,55.8,11.1z"/>
		<path class="st6" d="M57.2,14.4c1.5,0.9,3.5,1.4,5.5,1.6l-0.2,5.6c-2.4,0-4.8,0.5-6.7,1.5c-1.3,0.8-2.2,1.7-2.5,2.7
			c-0.4,1.1-1.3,2.1-2.7,3c-3.8,2.2-10,2.2-13.9,0c-2.4-1.4-5.3-2.2-8.4-2.5c-0.5-1.8-1.9-3.5-4.3-4.9c-3.8-2.2-3.8-5.8,0-8
			c1.5-0.8,3.3-1.4,5.2-1.6c1.7-0.2,3.4-0.7,4.7-1.4c1.8-1.1,2.7-2.5,2.6-3.9l9.7-0.1c0.3,1.2,1.1,2.3,2.7,3.2
			c1.6,0.9,3.5,1.4,5.6,1.6C54.7,12.3,55.6,13.5,57.2,14.4L57.2,14.4z"/>
		<g>
			<path class="st7" d="M37.3,11.9l6.2,3.6l-1.3,0.8l-4.7-2.7l-2.8,1.6c0.3,0.1,0.6,0.2,0.9,0.3s0.5,0.2,0.7,0.4
				c1.3,0.7,2,1.5,2,2.4c0,0.8-0.5,1.6-1.7,2.3s-2.6,1.1-4.1,1c-1.5-0.1-2.9-0.5-4.3-1.3c-0.5-0.3-0.9-0.6-1.4-0.9
				c-0.4-0.3-0.8-0.7-1.2-1.1l1.6-0.9c0.2,0.4,0.5,0.8,0.9,1.2s0.8,0.7,1.4,1c0.9,0.5,1.8,0.8,2.8,0.8c1,0,1.9-0.2,2.7-0.7
				c0.8-0.5,1.2-1,1.1-1.6s-0.5-1.1-1.4-1.6c-0.4-0.2-0.9-0.5-1.4-0.6c-0.5-0.2-1.1-0.3-1.7-0.5L37.3,11.9z M46.8,23.6
				c0.6,0.5,0.8,1.1,0.8,1.6c-0.1,0.5-0.5,1-1.2,1.5c-1.1,0.7-2.4,0.9-3.8,0.9c-1.4-0.1-2.8-0.6-4.3-1.4c-0.5-0.3-0.9-0.6-1.4-1
				c-0.4-0.3-0.8-0.7-1.2-1.2l1.5-0.9c0.2,0.4,0.5,0.8,0.9,1.2s0.9,0.7,1.4,1.1c1,0.6,1.9,0.9,2.8,1c0.9,0.1,1.7-0.1,2.5-0.5
				c0.7-0.4,1-0.8,0.9-1.3s-0.6-1-1.4-1.5L43,22.3l1.3-0.7l1.4,0.8c0.8,0.4,1.5,0.7,2.2,0.8s1.4-0.1,1.9-0.4
				c0.6-0.3,0.8-0.7,0.7-1.2c-0.1-0.4-0.5-0.9-1.3-1.3c-0.4-0.2-0.9-0.5-1.5-0.7s-1.3-0.5-2.1-0.7l1.4-0.8c0.8,0.2,1.4,0.5,2,0.7
				c0.6,0.3,1.1,0.5,1.6,0.8c1.2,0.7,1.9,1.4,2,2.1c0.2,0.7-0.2,1.3-1.1,1.9c-0.6,0.4-1.4,0.6-2.2,0.6C48.4,24,47.6,23.9,46.8,23.6z
				"/>
		</g>
	</g>
</g>
</svg>
