<svg xmlns="http://www.w3.org/2000/svg" viewBox="0 0 64 64" width="256px" height="256px"><path fill="#85cbf8" d="M32,63.5c-10.4,0-19-8.5-19-19c0-6.9,4.4-13.5,9-20.4c3.9-5.9,7.9-11.9,9.9-18.8c2,6.9,6,12.9,9.9,18.8 c4.6,6.9,9,13.5,9,20.4C51,55,42.5,63.5,32,63.5z"/><path fill="#6fc6f0" d="M40.9,58.2c-1.6-1.6-3.8-2.1-6-1.6C34,56.9,33,57,32,57c-5.6,0-10.4-4-12.2-9.5c-0.7-2.1-2.7-3.5-4.9-3.5 l-1.8,0c0,0,0,0,0,0C12.8,54.7,21.4,63.5,32,63.5c4,0,7.7-1.3,10.8-3.4L40.9,58.2z"/><path fill="#9fddff" d="M42,24.2c-3.9-5.9-7.9-11.9-9.9-18.8c-0.6,2.2-1.5,4.3-2.5,6.4c2.1,4.4,4.8,8.4,7.4,12.4c4.6,6.9,9,13.5,9,20.4 c0,1.8-0.2,3.5-0.7,5.2C44,54,48,55,49.7,51.5c1-2.1,1.3-4.5,1.3-6.9C51,37.7,46.6,31.1,42,24.2z"/><path fill="#8d6c9f" d="M43.1,23.6C38.7,16.9,34.1,10,33,1.9C33,1.4,32.6,1,32.1,1s-0.9,0.4-1,0.9C30,10,25.4,16.9,21,23.6 c-4.6,6.8-8.9,13.3-8.9,20.4c0,11,9,20,20,20c11,0,20-9,20-20C52,36.9,47.7,30.4,43.1,23.6z M32,62c-9.9,0-18-8.1-18-18 c0-6.5,4.1-12.8,8.5-19.3c3.7-5.6,7.5-11.3,9.4-17.8c1.9,6.5,5.7,12.3,9.4,17.8C45.9,31.3,50,37.5,50,44C50,53.9,41.9,62,32,62z"/><path fill="#8d6c9f" d="M39.9 27.7l-.7-1.1c-.3-.5-.9-.6-1.4-.3-.5.3-.6.9-.3 1.4l.7 1.1C41.7 34.1 45 39.1 45 44c0 .6.4 1 1 1s1-.4 1-1C47 38.5 43.5 33.3 39.9 27.7zM34.9 19.6c-.2-.5-.9-.7-1.3-.4-.5.2-.7.9-.4 1.3.4.9 1 1.8 1.5 2.8.2.3.5.5.9.5.2 0 .3 0 .5-.1.5-.3.6-.9.4-1.4C35.8 21.3 35.3 20.4 34.9 19.6zM32 54c-.6 0-1 .4-1 1v2c0 .6.4 1 1 1s1-.4 1-1v-2C33 54.4 32.6 54 32 54zM22 44c0-.6-.4-1-1-1h-2c-.6 0-1 .4-1 1s.4 1 1 1h2C21.6 45 22 44.6 22 44zM22 48.6l-1.7 1c-.5.3-.6.9-.4 1.4.2.3.5.5.9.5.2 0 .3 0 .5-.1l1.7-1c.5-.3.6-.9.4-1.4C23.1 48.5 22.5 48.4 22 48.6zM27 52.7c-.5-.3-1.1-.1-1.4.4l-1 1.7c-.3.5-.1 1.1.4 1.4.2.1.3.1.5.1.3 0 .7-.2.9-.5l1-1.7C27.6 53.5 27.5 52.9 27 52.7z"/></svg>