<?xml version="1.0" encoding="utf-8"?>
<!-- Generator: Adobe Illustrator 24.2.1, SVG Export Plug-In . SVG Version: 6.00 Build 0)  -->
<svg version="1.1" id="Isolation_Mode" xmlns="http://www.w3.org/2000/svg" xmlns:xlink="http://www.w3.org/1999/xlink" x="0px"
	 y="0px" viewBox="0 0 88.4 101.4" style="enable-background:new 0 0 88.4 101.4;" xml:space="preserve">
<style type="text/css">
	.st0{fill-rule:evenodd;clip-rule:evenodd;fill:#4286C5;}
	.st1{fill-rule:evenodd;clip-rule:evenodd;fill:#26527B;}
	.st2{fill:none;stroke:#B7D1E9;stroke-width:0.9903;stroke-miterlimit:14.9485;}
	.st3{fill-rule:evenodd;clip-rule:evenodd;fill:#326CA2;}
	.st4{fill:none;stroke:#DEEAF5;stroke-width:0.9903;stroke-miterlimit:14.9485;}
	.st5{fill:none;stroke:#000000;stroke-width:1.9769;stroke-miterlimit:14.9485;}
</style>
<g>
	<g id="_x35_ebd1cd8-3a3e-41da-bf4e-139d0e16ee90_1_" transform="translate(0 0)">
		<g>
			<path class="st0" d="M44.1,1.1v49.6L87,25.9L44.1,1.1z"/>
			<path class="st1" d="M1.2,25.9l42.9,24.8V1.1L1.2,25.9z"/>
			<path class="st2" d="M44.1,1.1v49.6"/>
			<path class="st1" d="M44.1,50.7L87,25.9L65.5,87.8L44,100.2V50.7H44.1z"/>
			<path class="st3" d="M1.2,25.9l42.9,24.8v49.6L22.6,87.9L1.2,25.9z"/>
			<path class="st4" d="M1.2,25.9l42.9,24.8L87,25.9L44.1,50.7v49.6"/>
			<path class="st5" d="M44.1,1.1L1.2,25.9l21.5,61.9l21.5,12.4l21.5-12.4l21.5-61.9L44.1,1.1z"/>
		</g>
	</g>
</g>
</svg>
