<svg xmlns="http://www.w3.org/2000/svg" viewBox="0 0 64 64" width="256px" height="256px"><polygon fill="#c4939c" points="44,14 27,43 61,43"/><polygon fill="#cda1a7" points="22,7 3,43 9,43 33,43 41,43"/><polyline fill="none" stroke="#8d6c9f" stroke-linecap="round" stroke-linejoin="round" stroke-miterlimit="10" stroke-width="2" points="3,43 22,7 41,43"/><polyline fill="none" stroke="#8d6c9f" stroke-linecap="round" stroke-linejoin="round" stroke-miterlimit="10" stroke-width="2" points="61,43 44,14 35,29"/><path fill="#97e0bb" d="M60.445,54H3.555C2.696,54,2,53.28,2,52.393v-7.786C2,43.72,2.738,43.265,3.555,43	C19,38,45,38,60.445,43c0,0,0,0,0,0C61.262,43.265,62,43.72,62,44.607v7.786C62,53.28,61.304,54,60.445,54z"/><path fill="none" stroke="#8d6c9f" stroke-linecap="round" stroke-linejoin="round" stroke-miterlimit="10" stroke-width="2" d="M5,42.742C4.204,42.889,3.607,43,3.607,43C2.72,43,2,43.72,2,44.607v7.786C2,53.28,2.72,54,3.607,54h56.786	C61.28,54,62,53.28,62,52.393v-7.786c0-0.888-0.769-1.316-1.607-1.607c0,0-0.657-0.194-1.393-0.411"/><path fill="#8d6c9f" d="M54.794,43.486c-0.073,0-0.147-0.008-0.223-0.025c-0.538-0.122-0.876-0.658-0.754-1.196 l0.442-1.95c0.122-0.539,0.651-0.879,1.197-0.754c0.538,0.122,0.876,0.658,0.754,1.196l-0.442,1.95 C55.663,43.171,55.251,43.486,54.794,43.486z"/><path fill="#8d6c9f" d="M49.806,42.528c-0.051,0-0.103-0.004-0.155-0.012c-0.545-0.085-0.919-0.596-0.834-1.142 l0.308-1.976c0.085-0.545,0.589-0.914,1.143-0.834c0.545,0.085,0.919,0.596,0.834,1.142l-0.308,1.976 C50.716,42.175,50.29,42.528,49.806,42.528z"/><path fill="#8d6c9f" d="M44.749,41.895c-0.034,0-0.068-0.001-0.104-0.005c-0.55-0.057-0.949-0.548-0.893-1.097l0.205-1.99 c0.058-0.549,0.546-0.954,1.098-0.892c0.55,0.057,0.949,0.548,0.893,1.097l-0.205,1.99 C45.689,41.512,45.256,41.895,44.749,41.895z"/><path fill="#8d6c9f" d="M34.555,41.286c-0.006,0-0.013,0-0.02,0c-0.552-0.011-0.991-0.467-0.98-1.02l0.039-2 c0.011-0.545,0.456-0.98,1-0.98c0.006,0,0.013,0,0.02,0c0.552,0.011,0.991,0.467,0.98,1.02l-0.039,2 C35.544,40.851,35.099,41.286,34.555,41.286z"/><path fill="#8d6c9f" d="M29.445,41.286c-0.544,0-0.989-0.435-1-0.98l-0.039-2c-0.011-0.552,0.429-1.009,0.98-1.02 c0.007,0,0.014,0,0.02,0c0.544,0,0.989,0.435,1,0.98l0.039,2c0.011,0.552-0.429,1.009-0.98,1.02 C29.458,41.286,29.451,41.286,29.445,41.286z"/><path fill="#8d6c9f" d="M24.339,41.477c-0.525,0-0.966-0.41-0.997-0.941l-0.117-1.997 c-0.032-0.551,0.388-1.024,0.939-1.057c0.54-0.042,1.024,0.389,1.057,0.939l0.117,1.997c0.032,0.551-0.388,1.024-0.939,1.057 C24.379,41.476,24.358,41.477,24.339,41.477z"/><path fill="#8d6c9f" d="M19.252,41.895c-0.506,0-0.94-0.383-0.994-0.897l-0.206-1.99 c-0.057-0.549,0.343-1.041,0.893-1.098c0.537-0.063,1.04,0.342,1.098,0.892l0.206,1.99c0.057,0.549-0.343,1.041-0.893,1.098 C19.321,41.893,19.286,41.895,19.252,41.895z"/><path fill="#8d6c9f" d="M14.194,42.528c-0.484,0-0.91-0.353-0.987-0.846l-0.308-1.976 c-0.085-0.546,0.289-1.057,0.834-1.142c0.557-0.079,1.058,0.29,1.143,0.834l0.308,1.976c0.085,0.546-0.289,1.057-0.834,1.142 C14.297,42.524,14.245,42.528,14.194,42.528z"/><path fill="#8d6c9f" d="M9.207,43.486c-0.456,0-0.869-0.314-0.975-0.778l-0.443-1.951 c-0.122-0.539,0.216-1.074,0.754-1.197c0.533-0.126,1.074,0.215,1.197,0.753l0.443,1.951c0.122,0.539-0.216,1.074-0.754,1.197 C9.355,43.478,9.28,43.486,9.207,43.486z"/></svg>